<svg width="136" height="44" viewBox="0 0 136 44" fill="none" xmlns="http://www.w3.org/2000/svg">
<g clip-path="url(#clip0_607_11358)">
<path d="M6.2432 38.2978H16.8056C24.6769 42.8054 33.8265 44.8909 38.8722 45.4291C40.1505 45.631 40.8905 45.631 40.8905 45.631C35.9121 44.6891 28.3771 42.1999 21.9186 38.4997C16.8729 35.6068 12.2981 31.9739 9.53975 27.7354C6.57959 23.1607 4.89768 18.4513 4.5613 14.4147C4.22491 10.3109 5.23407 6.87978 7.52146 4.92877C9.94341 2.91047 12.769 1.96861 15.7964 1.76678C11.7599 1.4304 7.72328 2.30499 4.5613 4.99604C-0.148049 8.96535 -0.215326 20.0659 6.2432 29.1483C6.2432 29.2155 6.31048 29.2155 6.31048 29.2828V38.2978H6.2432ZM40.8233 36.0777V28.6773C39.8814 29.5519 38.334 30.0901 36.4503 30.292C33.9611 30.4938 31.0009 30.0228 27.9735 28.7446C27.1662 28.4082 26.3588 28.0046 25.6188 27.6009C22.1204 25.6499 19.2275 22.8243 17.3438 19.9314C15.4601 17.0385 14.6528 14.0111 15.3928 11.8582C16.1328 10.5127 17.0747 9.70539 18.0838 9.23445C19.093 8.76352 20.2367 8.62896 21.4477 8.69624C22.5914 8.76352 23.8023 9.0999 25.0133 9.57083C26.3588 10.109 27.6371 10.8491 28.9153 11.6564C30.1263 12.4637 31.2027 13.4729 32.1446 14.482C33.1537 15.6257 33.9611 16.8367 34.5666 17.9804C35.172 19.1913 35.5084 20.4023 35.5084 21.4115C35.5084 22.2861 35.2393 23.0261 34.5666 23.6316C34.0283 23.968 33.221 24.0352 32.2792 23.9007C31.2027 23.6989 29.9918 23.1607 28.7808 22.4879C27.5698 21.7479 26.4934 20.8733 25.6188 19.8641C24.7442 18.9222 24.1387 17.9131 23.8023 16.9712C23.0623 14.482 24.3405 13.6074 25.417 13.3383C25.9552 13.2038 26.4261 13.1365 26.6279 13.1365H26.6952L27.8389 13.0019L26.8298 12.531C26.7625 12.531 26.0224 12.3964 25.2151 12.3964C24.6096 12.4637 23.9369 12.531 23.3314 12.8001C22.6586 13.0692 22.1204 13.5401 21.7168 14.2802C21.4477 14.8184 21.3131 15.4911 21.3804 16.2985C21.5149 17.7113 22.255 19.2586 23.3987 20.6714C24.6096 22.1515 26.157 23.497 27.9735 24.5062C29.7227 25.5153 31.6064 25.9863 33.2883 26.1208C35.0375 26.1881 36.5176 25.7844 37.3922 24.9098C37.5267 24.7753 37.6613 24.5735 37.7958 24.4389C38.8722 22.8916 38.7377 20.8733 37.7958 18.7877C36.854 16.7694 35.2393 14.6166 33.221 12.7328C32.1446 11.7237 31.0682 10.7818 29.8572 9.97449C28.8481 9.23445 27.7716 8.62896 26.6952 8.02348C24.2733 6.74523 21.7168 5.93791 19.3621 6.00519C17.0074 6.00519 14.8546 6.87978 13.3072 9.03262C13.1054 9.369 12.8363 9.70539 12.6345 10.109C11.2217 12.8674 11.7599 16.3657 13.6436 19.8641C15.6619 23.5643 19.1603 27.2645 23.3314 30.0228C28.2426 33.2521 33.7592 34.8667 37.2576 35.5395C37.9976 35.7413 39.9487 36.0777 40.8233 36.0777ZM40.8233 17.9131V2.37226H23.0623H21.9186C25.2151 3.17958 28.3771 4.72693 31.1355 6.74522C34.9702 9.57083 38.6031 13.5401 40.6887 17.5767C40.756 17.644 40.756 17.7786 40.8233 17.9131Z" fill="#55BA75"/>
<path d="M68.6084 2.43945V41.7961H64.7063V22.0841H56.835V41.7961H52.933V2.43945H56.835V18.1821H64.7063V2.43945H68.6084Z" fill="black"/>
<path d="M78.2289 6.34148V18.1148H86.4366V22.0169H78.2289V37.8268H88.4549V41.7961H74.2596V2.43945H88.4549V6.34148H78.2289Z" fill="black"/>
<path d="M106.687 37.8268V41.7961H92.5588V37.8268V2.43945H96.4608V37.8268H106.687Z" fill="black"/>
<path d="M113.347 41.8635H109.445V2.50684H113.347V41.8635Z" fill="black"/>
<path d="M129.157 20.2677L134.943 41.7961H130.906L126.13 23.0933L121.42 41.7961H117.316L123.102 20.2677L117.249 2.43945H121.488L126.13 17.5766L130.772 2.43945H134.943L129.157 20.2677Z" fill="black"/>
</g>
<defs>
<clipPath id="clip0_607_11358">
<rect width="136" height="44" fill="white"/>
</clipPath>
</defs>
</svg>
